<svg xmlns="http://www.w3.org/2000/svg" width="132" height="132" viewBox="0 0 120 120" version="1.1"><path d="M 60 54 L 60 60 66 60 L 72 60 72 54 L 72 48 66 48 L 60 48 60 54 M 84 54 L 84 60 90 60 L 96 60 96 54 L 96 48 90 48 L 84 48 84 54 M 36 66 L 36 72 42 72 L 48 72 48 78 L 48 84 66 84 L 84 84 84 78 L 84 72 66 72 L 48 72 48 66 L 48 60 42 60 L 36 60 36 66" stroke="none" fill="#3cd41c" fill-rule="evenodd"></path><path d="M 48 42 L 48 72 42 72 L 36 72 36 66 L 36 60 30 60 L 24 60 24 42 L 24 24 18 24 L 12 24 12 66 L 12 108 18 108 L 24 108 24 102 L 24 96 36 96 L 48 96 48 102 L 48 108 54 108 L 60 108 60 102 L 60 96 66 96 L 72 96 72 102 L 72 108 78 108 L 84 108 84 96 L 84 84 66 84 L 48 84 48 78 L 48 72 78 72 L 108 72 108 42 L 108 12 102 12 L 96 12 96 18 L 96 24 90 24 L 84 24 84 30 L 84 36 78 36 L 72 36 72 30 L 72 24 66 24 L 60 24 60 18 L 60 12 54 12 L 48 12 48 42 M 60 54 L 60 60 66 60 L 72 60 72 54 L 72 48 66 48 L 60 48 60 54 M 84 54 L 84 60 90 60 L 96 60 96 54 L 96 48 90 48 L 84 48 84 54" stroke="none" fill="#9cec84" fill-rule="evenodd"></path></svg>